<svg xmlns="http://www.w3.org/2000/svg" xmlns:xlink="http://www.w3.org/1999/xlink" width="65" height="65" viewBox="0 0 65 65">
  <defs>
    <filter id="Rectangle_16918" x="0" y="0" width="65" height="65" filterUnits="userSpaceOnUse">
      <feOffset dy="2" input="SourceAlpha"/>
      <feGaussianBlur stdDeviation="4" result="blur"/>
      <feFlood flood-color="#497f97" flood-opacity="0.18"/>
      <feComposite operator="in" in2="blur"/>
      <feComposite in="SourceGraphic"/>
    </filter>
  </defs>
  <g transform="matrix(1, 0, 0, 1, 0, 0)" filter="url(#Rectangle_16918)">
    <rect id="Rectangle_16918-2" data-name="Rectangle 16918" width="41" height="41" rx="20.5" transform="translate(12 10)" fill="#fff"/>
  </g>
  <g id="Group_767" data-name="Group 767" transform="translate(525.809 325.054)">
    <path id="Path_237" data-name="Path 237" d="M-497.309-292.046q-3.642,0-7.283,0a1.928,1.928,0,0,1-2.216-2.191q0-5,0-10.005a1.83,1.83,0,0,1,2.08-2.076c1.643,0,3.286.011,4.929-.008a1.365,1.365,0,0,1,1.229.524A4.485,4.485,0,0,0-494-303.928a36.122,36.122,0,0,1,4.19-.028,1.9,1.9,0,0,1,2.135,2.123q0,3.862,0,7.725a1.879,1.879,0,0,1-2.053,2.057C-492.257-292.037-494.783-292.047-497.309-292.046Z" fill="#003e72"/>
    <path id="Path_238" data-name="Path 238" d="M-494.08-290.637c-2.378,0-4.755-.013-7.133.01-.508.005-.674-.14-.671-.661q.032-4.706,0-9.412c0-.493.114-.7.65-.682,1.347.035,2.7.022,4.044,0a1.01,1.01,0,0,1,.905.367c.015.02.037.034.051.053a4.687,4.687,0,0,0,4.765,1.973c1.5-.161,3.036-.01,4.555-.044.544-.012.647.2.643.689-.019,2.353-.024,4.706,0,7.059.006.532-.184.656-.68.652C-489.325-290.648-491.7-290.637-494.08-290.637Z" transform="translate(-3.167 -3.181)" fill="#fff"/>
  </g>
  <g id="Group_759" data-name="Group 759" transform="translate(379.275 -114.231)">
    <path id="Path_163" data-name="Path 163" d="M-232.448,232.775c.048-.39.146-1.1.215-1.807a.819.819,0,0,1,.311-.514q3.2-3.2,6.407-6.4c.32-.318.658-.618,1-.913a1.611,1.611,0,0,1,2.123.025c.488.443.955.913,1.4,1.4a1.581,1.581,0,0,1-.019,2.2c-2.444,2.463-4.907,4.908-7.36,7.363a1.1,1.1,0,0,1-.769.291c-.544.034-1.09.064-1.628.146C-231.984,234.758-232.484,234.333-232.448,232.775Zm1.936.416c.483-.151,1.074.066,1.488-.342,1.626-1.6,3.233-3.225,4.855-4.831.207-.2.226-.348,0-.552-.361-.332-.716-.673-1.043-1.038-.246-.274-.41-.275-.678-.007-1.293,1.293-2.592,2.58-3.922,3.836a3.041,3.041,0,0,0-1.249,2.336C-231.049,233.07-231.031,233.276-230.512,233.191Zm8.595-7.529a2.861,2.861,0,0,0-.751-.853c-.88-.843-.6-1-1.653.059a.553.553,0,0,1-.04.04c-.2.163-.149.307.016.465.325.313.627.651.964.949.161.142.284.526.56.316A2.885,2.885,0,0,0-221.917,225.661Z" transform="translate(-110.613 -81.285)" fill="#007aea"/>
    <g id="Group_43" data-name="Group 43" transform="translate(-356.425 131.231)">
      <rect id="Rectangle_62" data-name="Rectangle 62" width="6.527" height="0.959" transform="translate(4.885 1.796)" fill="none"/>
      <path id="Path_164" data-name="Path 164" d="M-304.86,160.878h5.248a.64.64,0,0,0,.639-.639v-.206H-305.5v.206A.64.64,0,0,0-304.86,160.878Z" transform="translate(310.383 -157.278)" fill="none"/>
      <path id="Path_165" data-name="Path 165" d="M-338.538,167.877q3.245,0,6.491,0v-7.075a.773.773,0,0,0-.773-.773h-2.194v.206a1.6,1.6,0,0,1-1.6,1.6h-5.248a1.6,1.6,0,0,1-1.6-1.6v-.206h-2.194a.773.773,0,0,0-.773.773v16.652a.773.773,0,0,0,.773.773h5.516q0-4.374,0-8.748A1.431,1.431,0,0,1-338.538,167.877Z" transform="translate(347.384 -157.278)" fill="none"/>
      <path id="Path_166" data-name="Path 166" d="M-260.027,263.935v-8.25a2.848,2.848,0,0,1-.6.041c-1.848-.044-3.7-.005-5.547-.023-.417,0-.595.072-.591.552q.032,4.226,0,8.453h5.96A.773.773,0,0,0-260.027,263.935Z" transform="translate(275.364 -243.756)" fill="none"/>
      <path id="Path_167" data-name="Path 167" d="M-298.972,141.858a.64.64,0,0,0-.639-.639h-5.248a.64.64,0,0,0-.639.639v.206h6.527Z" transform="translate(310.383 -140.268)" fill="none"/>
      <path id="Path_170" data-name="Path 170" d="M-267.994,249.05c0-.29-.23-.465-.451-.281-.461.386-1.032.712-.99,1.474.041.734-.012,1.472.017,2.207.017.427-.089.59-.558.587q-4.5-.032-9,0a.562.562,0,0,1-.447-.125.606.606,0,0,1-.1-.412c0-.182,0-.365,0-.547q.022-4.226,0-8.453c0-.479.175-.556.591-.552,1.849.018,3.7-.021,5.547.023a2.846,2.846,0,0,0,.6-.041,1.521,1.521,0,0,0,.959-.58c.017-.022.035-.044.052-.068.116-.162.368-.268.281-.512a.281.281,0,0,0-.333-.191c-.089.007-.181.026-.261.026h-.7q-3.245-.01-6.491,0a1.431,1.431,0,0,0-1.6,1.605q0,4.374,0,8.748,0,.409,0,.818c0,.049,0,.095,0,.141.044,1.007.564,1.473,1.638,1.474q2.406,0,4.811,0t4.811,0c.955,0,1.521-.395,1.58-1.319C-267.945,251.732-267.99,250.389-267.994,249.05Z" transform="translate(289.596 -229.528)" fill="#007aea"/>
    </g>
  </g>
</svg>
