<svg xmlns="http://www.w3.org/2000/svg" width="24" height="26.203" viewBox="0 0 24 26.203">
  <g id="Group_848" data-name="Group 848" transform="translate(-1121 -322)">
    <g id="Group_811" data-name="Group 811" transform="translate(1120.68 322)">
      <path id="Path_338" data-name="Path 338" d="M90.128,96l4.524,4.524V122.2H75V96Z" transform="translate(-72.543 -96)" fill="#606060"/>
      <path id="Path_339" data-name="Path 339" d="M89.49,101.524V97H76v24.565H94.013V101.524Z" transform="translate(-72.724 -96.181)" fill="#fff"/>
      <path id="Path_340" data-name="Path 340" d="M0,0H24V9H0Z" transform="translate(0.32 15)" fill="#c26528"/>
      <text id="PPTX" transform="translate(11.889 22.325)" fill="#fff" font-size="7" font-family="OpenSansHebrew-Bold, Open Sans Hebrew" font-weight="700" letter-spacing="0.01em"><tspan x="-8.862" y="0">PPTX</tspan></text>
    </g>
    <g id="Group_667" data-name="Group 667" transform="translate(1125.539 325.298)">
      <path id="Path_195" data-name="Path 195" d="M2181.71,955.537c-.433,0-.629-.188-.592-.571.059-.645.145-1.288.216-1.933a.5.5,0,0,1,.195-.3q2.409-2.382,4.819-4.766c.147-.145.239-.2.412-.022q.991,1.016,2.01,2c.175.169.137.262-.015.411q-2.431,2.388-4.847,4.79a.791.791,0,0,1-.535.188Z" transform="translate(-2181.114 -946.019)" fill="#49494d"/>
      <path id="Path_196" data-name="Path 196" d="M2720.888,786.063a1.037,1.037,0,0,1-.349.776c-.252.268-.529.512-.775.785-.161.18-.261.141-.411-.012q-.981-1-1.981-1.974c-.154-.149-.192-.25-.013-.412.29-.263.553-.557.839-.826a.891.891,0,0,1,1.34.012c.372.357.728.73,1.095,1.09A.87.87,0,0,1,2720.888,786.063Z" transform="translate(-2711.301 -784.103)" fill="#49494d"/>
    </g>
  </g>
</svg>