<svg xmlns="http://www.w3.org/2000/svg" xmlns:xlink="http://www.w3.org/1999/xlink" viewBox="0 0 200 200"><defs><style>.cls-1,.cls-6{fill:none;}.cls-2{clip-path:url(#clip-path);}.cls-3{fill:#e2f1fc;}.cls-4{fill:#1976d1;}.cls-5{fill:#fff;}.cls-6{stroke:#1976d1;stroke-linecap:round;stroke-linejoin:round;stroke-width:2.5px;}.cls-7{fill:#2fd9af;}</style><clipPath id="clip-path"><rect class="cls-1" width="200" height="200"/></clipPath></defs><title>identification-card-icon</title><g id="Layer_2" data-name="Layer 2"><g id="identification-card"><g class="cls-2"><path class="cls-3" d="M100,200A100,100,0,1,0,0,100,100,100,0,0,0,100,200"/><path class="cls-4" d="M153.86,155.22h-5.71a1.14,1.14,0,0,0,0,2.28h5.71a1.14,1.14,0,0,0,0-2.28"/><path class="cls-4" d="M143.21,155.22H46.14a1.14,1.14,0,0,0,0,2.28h97.07a1.14,1.14,0,0,0,0-2.28"/></g><rect class="cls-5" x="56.99" y="63.29" width="86.02" height="64.27"/><polyline class="cls-6" points="114.33 63.31 143 63.31 143 127.53 57 127.53 57 63.31 89.25 63.31"/><path class="cls-6" d="M46.25,68.65V54.38H60.58m93.17,71.37V140H139.42m14.33-73.16V52.6H139.42M46.25,124v14.27H60.58"/><polygon class="cls-7" points="96.42 36.51 82.08 36.51 94.62 65.07 94.62 66.86 108.96 66.86 108.96 65.07 96.42 36.51"/><polyline class="cls-6" points="82.09 36.53 94.63 65.05 94.63 66.84 108.94 66.84 108.94 65.05 96.42 36.53"/><polygon class="cls-7" points="110.75 36.51 94.62 65.07 94.62 70.43 108.96 70.43 108.96 65.07 125.09 36.51 110.75 36.51"/><polyline class="cls-6" points="125.08 36.53 108.96 65.06 108.96 70.41 94.64 70.41 94.64 65.06 110.75 36.53"/><path class="cls-6" d="M119.72,70.45h3.59m-39.46,0H80.27m7.17,0h28.7"/><g class="cls-2"><path class="cls-4" d="M37.69,88.88a4.89,4.89,0,0,0-3.44-3.45A4.89,4.89,0,0,0,37.69,82a4.91,4.91,0,0,0,3.45,3.45,4.91,4.91,0,0,0-3.45,3.45m6.71-4.17c-4.63-.86-5.13-1.36-6-6a.75.75,0,0,0-.73-.61.74.74,0,0,0-.72.61c-.85,4.62-1.36,5.12-6,6a.73.73,0,0,0,0,1.44c4.62.86,5.13,1.36,6,6a.74.74,0,0,0,.72.61.75.75,0,0,0,.73-.61c.85-4.62,1.35-5.12,6-6a.73.73,0,0,0,0-1.44"/><path class="cls-4" d="M162.31,112.43a4.91,4.91,0,0,0-3.45-3.45,4.92,4.92,0,0,0,3.45-3.45,4.91,4.91,0,0,0,3.44,3.45,4.89,4.89,0,0,0-3.44,3.45m6.7-4.18c-4.62-.85-5.13-1.35-6-6a.74.74,0,0,0-.72-.61.75.75,0,0,0-.73.61c-.85,4.62-1.35,5.12-6,6a.74.74,0,0,0-.6.73.73.73,0,0,0,.6.72c4.63.86,5.13,1.36,6,6a.75.75,0,0,0,.73.61.74.74,0,0,0,.72-.61c.85-4.62,1.36-5.12,6-6a.73.73,0,0,0,.6-.72.74.74,0,0,0-.6-.73"/></g><rect class="cls-3" x="100.05" y="79.37" width="32.23" height="35.66"/><rect class="cls-6" x="100.05" y="79.37" width="32.23" height="35.66"/><g class="cls-2"><path class="cls-7" d="M116.16,115H100.05v-8.67c.76-.6,8.63-3.79,16.11-3.79s15.36,3.19,16.12,3.79V115Z"/><path class="cls-6" d="M116.16,115H100.05v-8.67c.76-.6,8.63-3.79,16.11-3.79s15.36,3.19,16.12,3.79V115Z"/><path class="cls-5" d="M116.16,84.73h0a7.31,7.31,0,0,1,7.16,7.42V96.9a7.16,7.16,0,1,1-14.31,0V92.15a7.31,7.31,0,0,1,7.15-7.42"/><path class="cls-6" d="M116.16,84.73h0a7.31,7.31,0,0,1,7.16,7.42V96.9a7.16,7.16,0,1,1-14.31,0V92.15A7.31,7.31,0,0,1,116.16,84.73Z"/></g><path class="cls-6" d="M91.07,104.32H76.72m14.35-8.91H67.76m23.31-8.92H67.76"/></g></g></svg>