<svg xmlns="http://www.w3.org/2000/svg" width="50.64" height="48.917" viewBox="0 0 50.64 48.917">
  <g id="bank" transform="translate(-1634.447 -482.359)">
    <g id="Group_1551" data-name="Group 1551" transform="translate(1634.447 482.359)">
      <ellipse id="Ellipse_77" data-name="Ellipse 77" cx="18.672" cy="18.672" rx="18.672" ry="18.672" transform="translate(13.296 11.572)" fill="#fcb894"/>
      <g id="Group_780" data-name="Group 780" transform="translate(0)">
        <path id="Path_16955" data-name="Path 16955" d="M1124.83,117.469q-8.3,0-16.592.007c-.832,0-1.533.04-1.48-1.165.045-1.041.269-1.63,1.48-1.655,2.628-.054,2.627-.1,2.627-2.744,0-4.135.032-8.271-.021-12.405-.015-1.135.185-1.635,1.5-1.62,4.1.045,4.1-.015,4.1,4.113,0,3.722.034,7.444-.021,11.164-.016,1.082.178,1.548,1.42,1.545,4.186-.011,4.187.043,4.187-4.184,0-3.722.047-7.444-.027-11.164-.024-1.186.361-1.471,1.5-1.467,4.113.016,4.113-.026,4.113,4.1,0,3.773.038,7.547-.023,11.319-.018,1.1.346,1.386,1.413,1.391,4.2.018,4.2.053,4.2-4.166,0-3.773.032-7.547-.021-11.319-.014-1.026.323-1.3,1.327-1.317,4.278-.057,4.277-.089,4.277,4.238,0,3.722.038,7.444-.023,11.164-.018,1.091.32,1.519,1.4,1.385.458-.057.93.007,1.395-.011,1.178-.045,1.277.705,1.326,1.629.054,1.029-.449,1.181-1.314,1.177C1135.995,117.457,1130.412,117.469,1124.83,117.469Z" transform="translate(-1103.752 -84.311)" fill="#1970c0"/>
        <path id="Path_16956" data-name="Path 16956" d="M1118.151,66.458c-5.378,0-10.756-.009-16.135.008-1.092,0-1.985-.2-2.123-1.489-.072-.671-.53-.675-1.008-.66-.9.027-1.648-.1-1.79-1.225-.137-1.1.438-1.573,1.366-1.923,5.6-2.109,11.233-4.159,16.776-6.419a7.192,7.192,0,0,1,5.876.024c5.451,2.211,10.99,4.206,16.486,6.308.743.284,1.634.464,1.613,1.6-.019,1.012-.245,1.753-1.483,1.636-.719-.068-1.258,0-1.4.964-.16,1.107-1.112,1.187-2.046,1.185Q1126.219,66.448,1118.151,66.458Z" transform="translate(-1097.076 -54.135)" fill="#1970c0"/>
        <path id="Path_16957" data-name="Path 16957" d="M1118.206,169.445c-6.307,0-12.615.008-18.922-.009-.817,0-1.9.351-2.08-.971a2.621,2.621,0,0,1,1.357-3.013,3.557,3.557,0,0,1,1.657-.3q17.992.008,35.983,0c1.277,0,2.348.306,2.853,1.649.664,1.766.088,2.646-1.771,2.646Q1127.745,169.448,1118.206,169.445Z" transform="translate(-1097.132 -130.702)" fill="#1970c0"/>
      </g>
    </g>
  </g>
</svg>
