<svg xmlns="http://www.w3.org/2000/svg" xmlns:xlink="http://www.w3.org/1999/xlink" viewBox="0 0 200 200"><defs><style>.cls-1,.cls-6,.cls-8{fill:none;}.cls-2{clip-path:url(#clip-path);}.cls-3{fill:#e2f1fc;}.cls-4{fill:#1976d1;}.cls-5{fill:#fff;}.cls-6,.cls-8{stroke:#1976d1;stroke-width:2.5px;}.cls-6{stroke-linecap:round;stroke-linejoin:round;}.cls-7{fill:#2fd9af;}.cls-8{stroke-miterlimit:10;}</style><clipPath id="clip-path"><rect class="cls-1" width="200" height="200"/></clipPath></defs><title>identification-government-icon</title><g id="Layer_2" data-name="Layer 2"><g id="identification-government"><g class="cls-2"><path class="cls-3" d="M100,200A100,100,0,1,0,0,100,100,100,0,0,0,100,200"/><path class="cls-4" d="M161.43,157.5H33.64a1.14,1.14,0,0,1,0-2.28H161.43a1.14,1.14,0,0,1,0,2.28"/><path class="cls-4" d="M166.36,157.5h-.76a1.14,1.14,0,0,1,0-2.28h.76a1.14,1.14,0,0,1,0,2.28"/><path class="cls-4" d="M37.07,99.82a.92.92,0,0,0-.91-.92H33.6V96.34a.92.92,0,0,0-1.83,0V98.9H28.84a.92.92,0,0,0,0,1.83h2.93v2.93a.92.92,0,0,0,1.83,0v-2.93h2.56a.91.91,0,0,0,.91-.91"/><path class="cls-4" d="M65.31,46a4.91,4.91,0,0,0-3.45-3.45,4.91,4.91,0,0,0,3.45-3.45,4.89,4.89,0,0,0,3.44,3.45A4.89,4.89,0,0,0,65.31,46M72,41.78c-4.62-.86-5.13-1.36-6-6a.74.74,0,0,0-.72-.61.75.75,0,0,0-.73.61c-.85,4.62-1.35,5.12-6,6a.73.73,0,0,0,0,1.44c4.63.86,5.13,1.36,6,6a.75.75,0,0,0,.73.61A.74.74,0,0,0,66,49.2c.85-4.62,1.36-5.12,6-6a.73.73,0,0,0,0-1.44"/><path class="cls-4" d="M176.64,95.25a.92.92,0,0,0-.91-.92h-2.56V91.77a.92.92,0,0,0-1.83,0v2.56h-2.93a.92.92,0,0,0,0,1.83h2.93v2.93a.92.92,0,0,0,1.83,0V96.16h2.56a.91.91,0,0,0,.91-.91"/><path class="cls-5" d="M129.92,61.4h17.42A10.24,10.24,0,0,1,157.7,71.7v66.9H44.44V71.7c0-5.89,3.54-10.3,9.41-10.3H74.36"/><path class="cls-6" d="M129.92,61.4h17.42A10.24,10.24,0,0,1,157.7,71.7v66.9H44.44V71.7c0-5.89,3.54-10.3,9.41-10.3H74.36"/><path class="cls-5" d="M166.25,138.6H33.75v2.18c0,7.73,6.06,15.47,13.54,15.47H152.71c7.48,0,13.54-7.74,13.54-15.47Z"/><path class="cls-6" d="M166.25,138.6H33.75v2.18c0,7.73,6.06,15.47,13.54,15.47H152.71c7.48,0,13.54-7.74,13.54-15.47Z"/></g><line class="cls-6" x1="91.48" y1="147.43" x2="114.93" y2="147.43"/><rect class="cls-5" x="52.96" y="70.22" width="96.22" height="61.76"/><path class="cls-6" d="M53,132V70.22H74.36m55.55,0h19.23V132"/><g class="cls-2"><path class="cls-7" d="M91.13,87.87V64.55c0-5.4,5.36-9.81,11.09-9.81s11.09,4.41,11.09,9.81V87.87H124.4V65.12c0-11.57-9.7-21.37-22.18-21.37S80,53.55,80,65.12V87.87Z"/><path class="cls-6" d="M91.13,87.87V64.55c0-5.4,5.36-9.81,11.09-9.81s11.09,4.41,11.09,9.81V87.87H124.4V65.12c0-11.57-9.7-21.37-22.18-21.37S80,53.55,80,65.12V87.87Z"/><path class="cls-7" d="M135.5,85.66a4.43,4.43,0,0,0-4.44-4.42H73.38a4.43,4.43,0,0,0-4.44,4.42v37.5a4.43,4.43,0,0,0,4.44,4.42h57.68a4.43,4.43,0,0,0,4.44-4.42Z"/><path class="cls-8" d="M135.5,85.66a4.43,4.43,0,0,0-4.44-4.42H73.38a4.43,4.43,0,0,0-4.44,4.42v37.5a4.43,4.43,0,0,0,4.44,4.42h57.68a4.43,4.43,0,0,0,4.44-4.42Z"/><path class="cls-5" d="M102.22,92.28a6.64,6.64,0,0,0-6.66,6.62,6.53,6.53,0,0,0,2.22,4.9v6.13a4.44,4.44,0,0,0,8.88,0V103.8a6.57,6.57,0,0,0,2.22-4.9,6.64,6.64,0,0,0-6.66-6.62"/><path class="cls-6" d="M102.22,92.28a6.64,6.64,0,0,0-6.66,6.62,6.53,6.53,0,0,0,2.22,4.9v6.13a4.44,4.44,0,0,0,8.88,0V103.8a6.57,6.57,0,0,0,2.22-4.9A6.64,6.64,0,0,0,102.22,92.28Z"/></g></g></g></svg>