<svg xmlns="http://www.w3.org/2000/svg" xmlns:xlink="http://www.w3.org/1999/xlink" width="100" height="100" viewBox="0 0 100 100"><defs><style>.a,.e{fill:none;}.b{clip-path:url(#a);}.c{fill:#e3f2fd;}.d{fill:#2fdab0;}.e{stroke:#1976d2;stroke-linecap:round;stroke-linejoin:round;stroke-width:2.2px;}.f{fill:#fff;}.g{fill:#1976d2;}</style><clipPath id="a"><rect class="a" width="100" height="100"/></clipPath></defs><g class="b"><path class="c" d="M50,100A50,50,0,1,0,0,50a50,50,0,0,0,50,50"/><path class="d" d="M56.11,27.3c.77,0,4.78-7.66,5.67-8.87.3-.42.37-.52.13-.82s-.76-.23-1.33-.06a7.07,7.07,0,0,1-3.91-.44c-3-.9-7.34-2.17-9.08,1.15-.17.32-.06.08.28.47.91,1.06,4.76,8.57,5.55,8.57Z"/><path class="e" d="M56.11,27.3c.77,0,4.78-7.66,5.67-8.87.3-.42.37-.52.13-.82s-.76-.23-1.33-.06a7.07,7.07,0,0,1-3.91-.44c-3-.9-7.34-2.17-9.08,1.15-.17.32-.06.08.28.47.91,1.06,4.76,8.57,5.55,8.57Z"/><path class="d" d="M71.86,41.76c-1-4.28-3-8.76-12.11-14.51a9.13,9.13,0,0,0-8.65-.38c-9.36,5.21-11.43,10.61-12.39,14.89a24.84,24.84,0,0,0-.6,5.13c0,10,7.65,18.16,17.07,18.16s17.07-8.14,17.07-18.17a25.069,25.069,0,0,0-.39-5.12M38.11,46.91Z"/><path class="e" d="M71.86,41.76c-1-4.28-3-8.76-12.11-14.51a9.13,9.13,0,0,0-8.65-.38c-9.36,5.21-11.43,10.61-12.39,14.89a24.84,24.84,0,0,0-.6,5.13c0,10,7.65,18.16,17.07,18.16s17.07-8.14,17.07-18.17A25.069,25.069,0,0,0,71.86,41.76ZM38.11,46.91Z"/><path class="f" d="M70.85,54.76l-6.68,3.29-.37.15a2.62,2.62,0,0,0-2.4-1.46H54.59c-1.57,0-3.94-2.36-5.82-2.36H42.09c-2.75,0-5.2,2.34-6.58,3.67l-6.43,6.7L39.52,75.6c1.71-1.77,3.72-3.52,5.47-3.52H58.62a7.88,7.88,0,0,0,5.75-2.24L75.67,58.1l3.22-8.34c-2-2-6.43.14-8,5"/><path class="e" d="M49.52,63.81H61.4c1.88,0,2.9-1.54,2.9-3.5h0c0-2-1-3.57-2.9-3.57H54.58c-1.57,0-3.94-2.37-5.83-2.37H42.07c-2.75,0-5.2,2.34-6.59,3.68l-6.43,6.72L39.5,75.63c1.71-1.78,3.72-3.54,5.47-3.54H58.61a7.9,7.9,0,0,0,5.76-2.24L75.68,58.08l3.22-8.36c-2-2-6.43.13-8,5L64.17,58"/></g><path class="g" d="M27.93,61.43l-6.83,7.1L35.91,83.9l6.83-7.09Z"/><path class="e" d="M27.93,61.43l-6.83,7.1L35.91,83.9l6.83-7.09Z"/><g class="b"><path class="e" d="M55.21,48.5v3.55m0-15.36V33.14m-3.4,13h0a2.31,2.31,0,0,0,2.27,2.36h2.27a2.32,2.32,0,0,0,2.27-2.36v-.66a2.36,2.36,0,0,0-1.55-2.24L53.36,42a2.34,2.34,0,0,1-1.55-2.24V39.1a2.31,2.31,0,0,1,2.27-2.36h2.27a2.31,2.31,0,0,1,2.27,2.36"/><path class="g" d="M29.14,45.25a.92.92,0,0,0-.91-.92H25.67V41.77a.92.92,0,0,0-1.83,0v2.56H20.91a.92.92,0,0,0,0,1.83h2.93v2.93a.92.92,0,0,0,1.83,0V46.16h2.56a.91.91,0,0,0,.91-.91"/><path class="g" d="M31.88,29.75a4.91,4.91,0,0,0-3.45-3.44,4.92,4.92,0,0,0,3.45-3.45,4.91,4.91,0,0,0,3.44,3.45,4.9,4.9,0,0,0-3.44,3.44m6.7-4.17c-4.62-.85-5.13-1.35-6-6a.73.73,0,0,0-.72-.6.74.74,0,0,0-.73.6c-.85,4.63-1.35,5.13-6,6a.75.75,0,0,0-.6.73.74.74,0,0,0,.6.72c4.63.85,5.13,1.36,6,6a.74.74,0,0,0,.73.6.73.73,0,0,0,.72-.6c.85-4.62,1.36-5.13,6-6a.74.74,0,0,0,.61-.72.75.75,0,0,0-.61-.73"/></g></svg>