<svg xmlns="http://www.w3.org/2000/svg" xmlns:xlink="http://www.w3.org/1999/xlink" viewBox="0 0 200 200"><defs><style>.cls-1,.cls-6{fill:none;}.cls-2{clip-path:url(#clip-path);}.cls-3{fill:#e2f1fc;}.cls-4{fill:#1976d1;}.cls-5{fill:#fff;}.cls-6{stroke:#1976d1;stroke-linecap:round;stroke-linejoin:round;stroke-width:2.5px;}.cls-7{fill:#2fd9af;}</style><clipPath id="clip-path"><rect class="cls-1" width="200" height="200"/></clipPath></defs><title>new-application-submission-icon</title><g id="Layer_2" data-name="Layer 2"><g id="new-application-submission"><g class="cls-2"><path class="cls-3" d="M100,200A100,100,0,1,0,0,100,100,100,0,0,0,100,200"/><path class="cls-4" d="M139.31,155.22h-5.7a1.14,1.14,0,1,0,0,2.28h5.7a1.14,1.14,0,1,0,0-2.28"/><path class="cls-4" d="M139.54,138.34H137v-2.93a.92.92,0,0,0-1.83,0v2.93h-2.92a.92.92,0,1,0,0,1.83h2.92v2.92a.92.92,0,1,0,1.83,0v-2.92h2.56a.92.92,0,0,0,0-1.83"/><path class="cls-4" d="M55.69,57.25a4.88,4.88,0,0,0-3.44-3.44,4.89,4.89,0,0,0,3.44-3.45,4.92,4.92,0,0,0,3.45,3.45,4.91,4.91,0,0,0-3.45,3.44m6.71-4.17c-4.63-.85-5.13-1.35-6-6a.74.74,0,0,0-1.45,0c-.85,4.63-1.35,5.13-6,6a.74.74,0,0,0-.6.73.73.73,0,0,0,.6.72c4.63.85,5.13,1.36,6,6a.74.74,0,0,0,1.45,0c.85-4.62,1.35-5.13,6-6a.73.73,0,0,0,.6-.72.74.74,0,0,0-.6-.73"/><path class="cls-4" d="M40.44,93.79a7.88,7.88,0,0,0-5.55-5.55,7.86,7.86,0,0,0,5.55-5.54A7.83,7.83,0,0,0,46,88.24a7.85,7.85,0,0,0-5.54,5.55m8.2-6.25c-5.11-1.41-6.09-2.4-7.5-7.5a.73.73,0,0,0-.7-.54.74.74,0,0,0-.71.54c-1.41,5.1-2.39,6.09-7.5,7.5a.71.71,0,0,0-.53.7.73.73,0,0,0,.53.71c5.11,1.41,6.09,2.39,7.5,7.49a.74.74,0,0,0,.71.54.73.73,0,0,0,.7-.54c1.41-5.1,2.39-6.08,7.5-7.49a.74.74,0,0,0,.54-.71.72.72,0,0,0-.54-.7"/><path class="cls-5" d="M80.83,118.14v-29L68.46,98.59a12.59,12.59,0,0,0-4.06,9.31v37.45H99.08v-7.26s7.3-4.39,7.3-12.69v-7.26Z"/><path class="cls-6" d="M80.83,118.14v-29L68.46,98.59a12.59,12.59,0,0,0-4.06,9.31v37.45H99.08v-7.26s7.3-4.39,7.3-12.69v-7.26Z"/><path class="cls-5" d="M135.61,43.73H91.78L77.18,58.25V120h58.43a3.65,3.65,0,0,0,3.65-3.63v-69a3.64,3.64,0,0,0-3.65-3.63"/><path class="cls-6" d="M80.83,119.94H135.6a3.64,3.64,0,0,0,3.65-3.63V47.38a3.63,3.63,0,0,0-3.65-3.63H91.79L77.18,58.26v52.61"/><path class="cls-5" d="M94.19,95C90,99.2,73.4,115.29,73.4,115.29L88,134.22s6.17-7.42,2.07-16.51c0,0,7.37-8.21,9.18-10.69,4-5.94-.81-16.24-5-12"/><path class="cls-6" d="M73.41,115.28S90,99.22,94.18,95s9.07,6.09,5,12c-1.8,2.48-9.17,10.67-9.17,10.67,4.09,9.08-2.07,16.5-2.07,16.5"/></g><polyline class="cls-7" points="60.74 156.26 60.74 143.56 104.56 143.56 104.56 156.26"/><path class="cls-6" d="M60.75,156.25V143.57h43.81v12.68m-38.33-5.43H71.7"/><g class="cls-2"><path class="cls-3" d="M92.1,54.71A4.09,4.09,0,0,1,88,58.82H77.18L92.1,43.75Z"/><path class="cls-6" d="M92.1,54.71A4.09,4.09,0,0,1,88,58.82H77.18L92.1,43.75Z"/><path class="cls-4" d="M127.14,155.22H60.64a1.14,1.14,0,0,0,0,2.28h66.5a1.14,1.14,0,0,0,0-2.28"/></g><path class="cls-6" d="M126.47,69.15H90m36.51,14.51h-21.9m21.9-7.26H90"/></g></g></svg>