<svg xmlns="http://www.w3.org/2000/svg" xmlns:xlink="http://www.w3.org/1999/xlink" viewBox="0 0 200 200"><defs><style>.cls-1,.cls-4{fill:none;}.cls-2{clip-path:url(#clip-path);}.cls-3{fill:#e2f1fc;}.cls-4{stroke:#1976d1;stroke-linecap:round;stroke-linejoin:round;stroke-width:2.5px;}.cls-5{fill:#fff;}.cls-6{fill:#2fd9af;}.cls-7{fill:#1976d1;}</style><clipPath id="clip-path"><rect class="cls-1" width="200" height="200"/></clipPath></defs><title>resubmit-application-icon</title><g id="Layer_2" data-name="Layer 2"><g id="resubmit-application"><g class="cls-2"><path class="cls-3" d="M100,200A100,100,0,1,0,0,100,100,100,0,0,0,100,200"/><path class="cls-4" d="M105.11,43.75h4.1m-20.46,0h4.09m4.09,0H101M51.93,82.61V54A10.23,10.23,0,0,1,62.16,43.75h22.5m28.63,0h24.55A10.23,10.23,0,0,1,148.07,54v47M51.93,90.8V86.7m0,12.28V94.89m32.73,61.36H62.16A10.23,10.23,0,0,1,51.93,146V105.11m8.18,8.19-8.18-8.19-8.18,8.19m61.36,43h4.1m-20.46,0h4.09m4.09,0H101m47.05-32.73V146a10.23,10.23,0,0,1-10.23,10.23H113.29m34.78-40.91v4.09m0-12.27v4.09m8.18-18.41L148.07,101l-8.18-8.18"/><path class="cls-5" d="M66.25,62.16a4.09,4.09,0,0,1,4.09-4.09h47.05l16.36,16.36v63.41a4.09,4.09,0,0,1-4.09,4.09H70.34a4.09,4.09,0,0,1-4.09-4.09Z"/><path class="cls-4" d="M66.25,62.16a4.09,4.09,0,0,1,4.09-4.09h47.05l16.36,16.36v63.41a4.09,4.09,0,0,1-4.09,4.09H70.34a4.09,4.09,0,0,1-4.09-4.09Z"/><path class="cls-6" d="M117.41,70.07a4.49,4.49,0,0,0,4.46,4.5h11.88l-16.34-16.5Z"/><path class="cls-4" d="M117.41,70.07a4.49,4.49,0,0,0,4.46,4.5h11.88l-16.34-16.5Z"/><path class="cls-7" d="M162.69,75.52a4.91,4.91,0,0,0-3.44-3.45,4.9,4.9,0,0,0,3.44-3.44,4.91,4.91,0,0,0,3.45,3.44,4.92,4.92,0,0,0-3.45,3.45m6.71-4.17c-4.63-.85-5.13-1.36-6-6a.75.75,0,0,0-.73-.61.74.74,0,0,0-.72.61c-.85,4.62-1.36,5.13-6,6a.73.73,0,0,0-.6.72.74.74,0,0,0,.6.73c4.62.85,5.13,1.35,6,6a.74.74,0,0,0,.72.61.75.75,0,0,0,.73-.61c.85-4.62,1.35-5.12,6-6a.74.74,0,0,0,.6-.73.73.73,0,0,0-.6-.72"/><path class="cls-7" d="M33.76,86.36a7.86,7.86,0,0,0-5.55-5.55,7.85,7.85,0,0,0,5.55-5.54,7.83,7.83,0,0,0,5.54,5.54,7.85,7.85,0,0,0-5.54,5.55M42,80.11c-5.1-1.41-6.09-2.39-7.5-7.5a.72.72,0,0,0-.7-.54.74.74,0,0,0-.71.54c-1.41,5.11-2.39,6.09-7.5,7.5a.72.72,0,0,0-.53.7.74.74,0,0,0,.53.71c5.11,1.41,6.09,2.39,7.5,7.5a.74.74,0,0,0,.71.53.72.72,0,0,0,.7-.53c1.41-5.11,2.4-6.09,7.5-7.5a.74.74,0,0,0,.54-.71.72.72,0,0,0-.54-.7"/></g></g></g></svg>