<svg xmlns="http://www.w3.org/2000/svg" xmlns:xlink="http://www.w3.org/1999/xlink" viewBox="0 0 200 200"><defs><style>.cls-1,.cls-6{fill:none;}.cls-2{clip-path:url(#clip-path);}.cls-3{fill:#e2f1fc;}.cls-4{fill:#1976d1;}.cls-5{fill:#fff;}.cls-6{stroke:#1976d1;stroke-linecap:round;stroke-linejoin:round;stroke-width:2.5px;}.cls-7{fill:#2fd9af;}</style><clipPath id="clip-path"><rect class="cls-1" width="200" height="200"/></clipPath></defs><title>update-documents-to-an-application-icon</title><g id="Layer_2" data-name="Layer 2"><g id="update-documents-to-an-application"><g class="cls-2"><path class="cls-3" d="M100,200A100,100,0,1,0,0,100,100,100,0,0,0,100,200"/><path class="cls-4" d="M123.59,155.22H55.81a1.14,1.14,0,0,0,0,2.28h67.78a1.14,1.14,0,0,0,0-2.28"/><path class="cls-4" d="M135.77,155.22h-5.71a1.14,1.14,0,0,0,0,2.28h5.71a1.14,1.14,0,0,0,0-2.28"/></g><polygon class="cls-5" points="59.8 67.11 145.2 67.11 145.2 69.57 133.7 86.01 150.95 86.25 150.95 89.3 139.45 100.81 122.21 101.1 113.17 107.39 87.72 107.39 61.44 131.22 58.98 131.53 59.8 67.11"/><polyline class="cls-6" points="135.33 105.07 151.4 88.97 151.4 86.96 75.4 86.96 67.03 113.12"/><g class="cls-2"><path class="cls-7" d="M101.18,66.86v-4l-8-8H51v80.44a4,4,0,0,0,4,4h65.71a7,7,0,0,0,4.81-2.53l31.92-29.65v-6H121.27l-8,6H87.47L61.81,131.21H59V66.86Z"/><path class="cls-6" d="M101.18,66.86v-4l-8-8H51v80.44a4,4,0,0,0,4,4h65.71a7,7,0,0,0,4.81-2.53l31.92-29.65v-6H121.27l-8,6H87.47L61.81,131.21H59V66.86Z"/></g><path class="cls-6" d="M135.77,58.1,131,49.8m26.44,21.09h10M155.92,63.5l8.28-4.79m-13.68-.61,4.78-8.3m-11.94,7V46.75M91.13,66.87h54.24v2L133.31,87"/><g class="cls-2"><path class="cls-4" d="M149.09,138.84h-2.56v-2.93a.92.92,0,0,0-1.83,0v2.93h-2.93a.92.92,0,0,0,0,1.83h2.93v2.92a.92.92,0,1,0,1.83,0v-2.92h2.56a.92.92,0,0,0,0-1.83"/><path class="cls-4" d="M34.69,106.94a4.91,4.91,0,0,0-3.44-3.45,4.9,4.9,0,0,0,3.44-3.44,4.91,4.91,0,0,0,3.45,3.44,4.92,4.92,0,0,0-3.45,3.45m6.71-4.17c-4.63-.85-5.13-1.35-6-6a.74.74,0,0,0-.73-.6.73.73,0,0,0-.72.6c-.85,4.63-1.36,5.13-6,6a.73.73,0,0,0-.6.72.74.74,0,0,0,.6.73c4.62.85,5.13,1.35,6,6a.73.73,0,0,0,.72.6.74.74,0,0,0,.73-.6c.85-4.63,1.35-5.13,6-6a.74.74,0,0,0,.6-.73.73.73,0,0,0-.6-.72"/></g></g></g></svg>