<svg xmlns="http://www.w3.org/2000/svg" xmlns:xlink="http://www.w3.org/1999/xlink" viewBox="0 0 200 200"><defs><style>.cls-1,.cls-7{fill:none;}.cls-2{clip-path:url(#clip-path);}.cls-3{fill:#e2f1fc;}.cls-4{fill:#1976d1;}.cls-5{fill:#fff;}.cls-6{fill:#fbc140;}.cls-7{stroke:#1976d1;stroke-linecap:round;stroke-linejoin:round;stroke-width:2.5px;}</style><clipPath id="clip-path"><rect class="cls-1" width="200" height="200"/></clipPath></defs><title>alert-save docs-icon</title><g id="Layer_2" data-name="Layer 2"><g id="alert-save_docs" data-name="alert-save docs"><g class="cls-2"><path class="cls-3" d="M100,200A100,100,0,1,0,0,100,100,100,0,0,0,100,200"/><path class="cls-4" d="M167.5,136.08V65.72a4.82,4.82,0,0,0-4.81-4.82h-8a1,1,0,1,0,0,1.91h8a2.9,2.9,0,0,1,2.9,2.91v70.36a2.9,2.9,0,0,1-2.9,2.91H37.31a2.91,2.91,0,0,1-2.91-2.91V65.72a2.91,2.91,0,0,1,2.91-2.91h8.41a1,1,0,0,0,0-1.91H37.31a4.82,4.82,0,0,0-4.81,4.82v70.36a4.82,4.82,0,0,0,4.81,4.82H162.69a4.82,4.82,0,0,0,4.81-4.82"/><path class="cls-4" d="M70.26,155.6h59.48v-1.37a4.08,4.08,0,0,0-4.1-4.06H114.76a4.06,4.06,0,0,1-4.06-4V140.9H89.3v5.22a4.06,4.06,0,0,1-4.06,4H74.36a4.08,4.08,0,0,0-4.1,4.06Zm60.43,1.9H69.31a1,1,0,0,1-1-.95v-2.32a6,6,0,0,1,6-6H85.24a2.15,2.15,0,0,0,2.15-2.14V140a.94.94,0,0,1,1-.95h23.32a.94.94,0,0,1,1,.95v6.17a2.15,2.15,0,0,0,2.15,2.14h10.88a6,6,0,0,1,6,6v2.32a1,1,0,0,1-1,.95"/></g><polygon class="cls-4" points="110.54 140.9 89.14 140.9 89.14 144.49 89.3 144.49 89.3 140.9 110.54 140.9"/><g class="cls-2"><path class="cls-4" d="M155,155.22h-5.71a1.14,1.14,0,0,0,0,2.28H155a1.14,1.14,0,0,0,0-2.28"/><path class="cls-5" d="M140.67,61.88a18.42,18.42,0,0,0-.67-4.34V54.42h-1.14a15.88,15.88,0,0,0-3.09-4.53l-7.59-7.73A24.39,24.39,0,0,0,122,37.93v-2h-6V36a18.62,18.62,0,0,0-3.13-.26H66.19a6.86,6.86,0,0,0-6.86,6.86v73.85s0,9,9,9h63.34s9,0,9-9Z"/><path class="cls-4" d="M139.64,55.3v63.22a5.84,5.84,0,0,1-5.83,5.84H66.19a5.84,5.84,0,0,1-5.83-5.84V42.6a5.84,5.84,0,0,1,5.83-5.84h55.25Zm2.06-.42a1,1,0,0,0-.29-.72L122.61,35a1.07,1.07,0,0,0-.74-.3H66.19A7.9,7.9,0,0,0,58.3,42.6v75.92a7.9,7.9,0,0,0,7.89,7.9h67.62a7.9,7.9,0,0,0,7.89-7.9Z"/><path class="cls-3" d="M121.8,50.06a5.14,5.14,0,0,0,5.14,5.15h13.73L121.8,36.33Z"/><path class="cls-4" d="M126.94,53.59a4.12,4.12,0,0,1-4.11-4.12V38.22l15.36,15.37ZM122.52,35a1,1,0,0,0-1.12-.23,1,1,0,0,0-.63.95V49.47a6.19,6.19,0,0,0,6.17,6.18h13.73a1.05,1.05,0,0,0,1-.64,1,1,0,0,0-.23-1.12Z"/></g><polygon class="cls-6" points="107.56 78.74 107.56 61.76 92.44 61.76 92.44 78.74 83 78.74 100 95.72 117 78.74 107.56 78.74"/><polygon class="cls-7" points="107.56 78.74 107.56 61.76 92.44 61.76 92.44 78.74 83 78.74 100 95.72 117 78.74 107.56 78.74"/><polyline class="cls-7" points="81.11 97.6 81.11 103.26 118.89 103.26 118.89 97.6"/><g class="cls-2"><path class="cls-4" d="M142.86,155.22H57.14a1.14,1.14,0,0,0,0,2.28h85.72a1.14,1.14,0,0,0,0-2.28"/></g></g></g></svg>