<svg xmlns="http://www.w3.org/2000/svg" xmlns:xlink="http://www.w3.org/1999/xlink" viewBox="0 0 200 200"><defs><style>.cls-1{fill:none;}.cls-2{clip-path:url(#clip-path);}.cls-3{fill:#e2f1fc;}.cls-4{fill:#1976d1;}.cls-5{fill:#fff;}.cls-6{fill:#fbc140;}</style><clipPath id="clip-path"><rect class="cls-1" width="200" height="200"/></clipPath></defs><title>alert-icon</title><g id="Layer_2" data-name="Layer 2"><g id="alert"><g class="cls-2"><path class="cls-3" d="M100,200A100,100,0,1,0,0,100,100,100,0,0,0,100,200"/><path class="cls-4" d="M123.59,155.22H64.23a1.14,1.14,0,0,0,0,2.28h59.36a1.14,1.14,0,0,0,0-2.28"/><path class="cls-4" d="M135.77,155.22h-5.71a1.14,1.14,0,0,0,0,2.28h5.71a1.14,1.14,0,0,0,0-2.28"/><path class="cls-5" d="M110.34,129.3a10.81,10.81,0,0,1-.71,3.87,10.95,10.95,0,0,1-21.18-3.87Z"/><path class="cls-4" d="M89.46,130.26a10.16,10.16,0,0,0,.6,2.56,10,10,0,0,0,18.66,0,9.52,9.52,0,0,0,.6-2.57Zm9.93,10.94a12,12,0,0,1-11.14-7.69,11.84,11.84,0,0,1-.76-4.21,1,1,0,0,1,1-1h21.88a1,1,0,0,1,1,1,11.81,11.81,0,0,1-.77,4.21,12,12,0,0,1-11.14,7.69"/><path class="cls-4" d="M88.53,130.58a10.66,10.66,0,0,0,.63,2.59h1l-.14-.35a10.07,10.07,0,0,1-.56-2.24h-1m21.73,0h-1a10.29,10.29,0,0,1-.56,2.25c0,.11-.09.23-.14.34h1a10.66,10.66,0,0,0,.63-2.59"/><path class="cls-5" d="M140,111.28c-6.32-5.43-9.44-13.24-11-30.43-1.74-19.16-14.14-29.7-29.64-29.7s-28,11-29.69,29.7c-1.56,17.19-4.69,25-11,30.43-3,2.59-3.78,5.2-3.42,9.86.84,5,3.07,7.69,6.61,8.16,0,0,18.73,0,37.51,0s37.46,0,37.46,0c3.54-.47,5.77-3.2,6.61-8.16.37-4.66-.42-7.27-3.42-9.86"/><path class="cls-4" d="M81.37,128h18c17.92,0,36,0,37.37,0,2.91-.42,4.68-2.72,5.43-7,.33-4.38-.4-6.5-3-8.73-6.8-5.85-9.91-14.33-11.45-31.3-1.6-17.59-12.46-28.52-28.36-28.52C83.71,52.44,72.56,63.64,71,81c-1.54,17-4.64,25.45-11.45,31.3-2.58,2.23-3.31,4.35-3,8.73.74,4.3,2.52,6.6,5.42,7h19.4m55.48,2.58h0c-.19,0-18.89,0-37.46,0s-37.32,0-37.5,0h-.17c-2.87-.37-6.55-2.27-7.72-9.21,0,0,0-.08,0-.12-.4-5.19.65-8.16,3.87-10.93,6.23-5.36,9.09-13.37,10.57-29.58.84-9.32,4.32-17.16,10.06-22.69a29.5,29.5,0,0,1,20.91-8.18c17.08,0,29.22,12.12,30.93,30.87,1.47,16.21,4.33,24.22,10.56,29.58,3.22,2.77,4.27,5.74,3.87,10.93,0,0,0,.08,0,.12-1.18,6.94-4.85,8.84-7.73,9.21h-.16"/><path class="cls-4" d="M140,112.64h-.32c2.24,2.09,2.87,4.22,2.55,8.34-.74,4.3-2.51,6.6-5.42,7h-8.22c-.16.16-.32.32-.49.46h8.42c3.15-.43,5.07-2.86,5.85-7.42.31-4-.3-6.31-2.37-8.4"/><path class="cls-4" d="M139.77,112.65H58.59a1.29,1.29,0,1,1,0-2.57h81.18a1.29,1.29,0,1,1,0,2.57"/><path class="cls-4" d="M126,44.94a15.59,15.59,0,0,0-4.37,30.55,15.39,15.39,0,0,0,4.37.62,15.59,15.59,0,1,0,0-31.17m0,33.75a18.16,18.16,0,1,1,18.16-18.16A18.21,18.21,0,0,1,126,78.69"/><path class="cls-4" d="M107.21,52.12a1,1,0,0,1-1-1,6.85,6.85,0,1,0-13.69,0,1,1,0,0,1-1.94,0,8.78,8.78,0,1,1,17.56,0,1,1,0,0,1-1,1"/><path class="cls-4" d="M126,37.92a1.29,1.29,0,0,1-1.29-1.29V27.49a1.29,1.29,0,1,1,2.58,0v9.14A1.29,1.29,0,0,1,126,37.92"/><path class="cls-4" d="M142.85,44.91a1.29,1.29,0,0,1-.91-2.2l6.48-6.48a1.29,1.29,0,0,1,1.83,1.82l-6.49,6.48a1.29,1.29,0,0,1-.91.38"/><path class="cls-4" d="M159,61.72h-9.12a1.29,1.29,0,1,1,0-2.57H159a1.29,1.29,0,1,1,0,2.57"/><path class="cls-6" d="M141.71,60.53A15.75,15.75,0,1,1,126,44.78a15.75,15.75,0,0,1,15.75,15.75"/><path class="cls-4" d="M126,71a2,2,0,0,1-1.43-.59A2,2,0,0,1,124,69a2,2,0,0,1,2-2,2,2,0,0,1,1.42.59A2,2,0,0,1,128,69a2,2,0,0,1-2,2"/><path class="cls-4" d="M126,65.42a2,2,0,0,1-1.43-.59,2,2,0,0,1-.59-1.42V51.72a2,2,0,0,1,.59-1.42,2,2,0,0,1,1.43-.59,2,2,0,0,1,2,2V63.41a2,2,0,0,1-2,2"/></g></g></g></svg>