<svg xmlns="http://www.w3.org/2000/svg" viewBox="0 0 20 20"><defs><style>.cls-1{fill:#af0020;}.cls-2{fill:#fff;}</style></defs><title>error-notification-icon</title><g id="Layer_2" data-name="Layer 2"><g id="user-profile-icon"><path class="cls-1" d="M10,20A10,10,0,1,0,0,10,10,10,0,0,0,10,20"/><path class="cls-2" d="M10,3.5A1.39,1.39,0,0,0,8.61,4.94a59.42,59.42,0,0,0,.46,6c.12.42.42.93.93.93s.81-.51.93-.93.46-4.53.46-6A1.39,1.39,0,0,0,10,3.5m0,10.21a1.4,1.4,0,1,0,1.39,1.4A1.4,1.4,0,0,0,10,13.71"/></g></g></svg>