<svg xmlns="http://www.w3.org/2000/svg" width="42" height="48" viewBox="0 0 42 48"><defs><style>.a{fill:#090;}</style></defs><g transform="translate(0 0)"><path class="a" d="M41.7,9.05,32.8.29A1,1,0,0,0,32.1,0H7.63A3.21,3.21,0,0,0,4.4,3.19v9.86a1,1,0,0,0,2,0V3.19A1.21,1.21,0,0,1,7.63,2H31.69L40,10.18V44.81A1.21,1.21,0,0,1,38.77,46H7.63A1.21,1.21,0,0,1,6.4,44.81V41.52a1,1,0,0,0-2,0v3.29A3.21,3.21,0,0,0,7.63,48H38.77A3.21,3.21,0,0,0,42,44.81V9.76a1,1,0,0,0-.3-.71Z"/><path class="a" d="M31,3.29a1,1,0,0,0-1,1v6.57a1,1,0,0,0,1,1h6.67a1,1,0,1,0,0-2H32V4.29A1,1,0,0,0,31,3.29Z"/><path class="a" d="M28.46,27.27A14.23,14.23,0,1,0,14.23,41.46,14.23,14.23,0,0,0,28.46,27.27ZM2,27.27A12.23,12.23,0,1,1,14.23,39.46,12.23,12.23,0,0,1,2,27.27Z"/><path class="a" d="M21.45,20.76a1,1,0,0,0-1.4.16L12,31.06,9.14,27.92a1,1,0,1,0-1.48,1.35l3.64,4a1,1,0,0,0,.74.33h0a1,1,0,0,0,.75-.38l8.78-11.06A1,1,0,0,0,21.45,20.76Z"/></g></svg>