<svg xmlns="http://www.w3.org/2000/svg" viewBox="0 0 41 34"><defs><style>.cls-1{fill:#092b48;}</style></defs><title>folder-icon</title><g id="Layer_2" data-name="Layer 2"><g id="user-profile-icon"><path class="cls-1" d="M40,34H3.54a3.46,3.46,0,0,1-2.41-1A3.59,3.59,0,0,1,0,30.41V2.73A2.71,2.71,0,0,1,2.69,0h11a1,1,0,0,1,.71.3l2.25,2.29H35.76a1,1,0,0,1,1,1v2.6h-2V4.59H16.26a.94.94,0,0,1-.71-.3L13.3,2H2.69A.71.71,0,0,0,2,2.73V30.41a1.59,1.59,0,0,0,.5,1.17A1.5,1.5,0,0,0,3.63,32a1.68,1.68,0,0,0,1.46-1.74V9.65A2.71,2.71,0,0,1,7.78,6.92H38.3A2.71,2.71,0,0,1,41,9.65V33A1,1,0,0,1,40,34ZM6.68,32H39V9.65a.72.72,0,0,0-.7-.73H7.78a.71.71,0,0,0-.69.73V30.26A3.88,3.88,0,0,1,6.68,32Z"/></g></g></svg>