<svg xmlns="http://www.w3.org/2000/svg" viewBox="0 0 8 12"><defs><style>.cls-1{fill:#1b3445;}</style></defs><title>help-icon</title><g id="Layer_2" data-name="Layer 2"><g id="Layer_1-2" data-name="Layer 1"><path class="cls-1" d="M4,9.08a.89.89,0,0,1-.89-.9c0-1.68.43-2,1.69-2.89l.21-.14A2.52,2.52,0,0,0,6.2,3.5c0-1-.88-1.7-2.2-1.7-1.06,0-2.2.45-2.2,1.7A.9.9,0,1,1,0,3.5C0,1.44,1.65,0,4,0S8,1.47,8,3.5A4.19,4.19,0,0,1,6.05,6.65l-.22.14c-.89.59-.89.59-.89,1.39A.9.9,0,0,1,4,9.08Z"/><path class="cls-1" d="M4,12a1,1,0,1,0-1-1,1,1,0,0,0,1,1"/></g></g></svg>