<svg xmlns="http://www.w3.org/2000/svg" width="24" height="23.998" viewBox="0 0 24 23.998">
    <defs>
    <style>
      .cls-1, .cls-3 {
        fill: none;
      }

      .cls-2 {
        clip-path: url(#clip-path);
      }

      .cls-3 {
        <!-- stroke: #0d7f89; -->
        stroke: #4E4D4D;
        stroke-width: 2px;
      }

      .cls-4 {
        fill: #fff;
        <!-- stroke: #499fa6; -->
        <!-- //stroke: #fff; -->
      }

      .cls-5 {
        stroke: none;
      }
    </style>
  </defs>
  <g id="profile" transform="translate(-472.79 -269.794)">
    <path id="Path_17000"  class="cls-4" data-name="Path 17000"
     d="M484.807,269.794a12,12,0,1,1-12.017,11.915A11.9,11.9,0,0,1,484.807,269.794Zm7.874,18.775c3.743-5.343,3.161-11.249-1.241-14.825a10.484,10.484,0,0,0-14.069.7,10.113,10.113,0,0,0-.388,13.951c1.458-2.949,3.629-4.25,6.918-3.062a2.823,2.823,0,0,0,1.784,0C488.98,284.14,491.141,285.46,492.681,288.569Zm-7.79,3.612a9.045,9.045,0,0,0,4.217-.929c.99-.483,2.244-.843,1.792-2.34-.462-1.525-1.54-2.7-3.186-2.363a13.742,13.742,0,0,1-5.806,0c-1.632-.351-2.741.776-3.221,2.313-.467,1.49.739,1.873,1.741,2.366A9.357,9.357,0,0,0,484.891,292.181Z" />
    <path id="Path_17001"  data-name="Path 17001" d="M492.577,290.134c-1.52-3.368-3.654-4.8-6.9-3.5a2.552,2.552,0,0,1-1.761,0c-3.247-1.287-5.389.122-6.829,3.317a11.74,11.74,0,0,1,.383-15.114,9.684,9.684,0,0,1,13.887-.761C495.7,277.948,496.271,284.346,492.577,290.134ZM484.766,275.6a4.707,4.707,0,0,0,.026,9.353,4.705,4.705,0,0,0-.026-9.353Z" fill="none"/>
    <path id="Path_17002"  data-name="Path 17002" d="M484.886,294.049a7.587,7.587,0,0,1-4.119-1.029c-.924-.534-2.036-.949-1.605-2.563.444-1.665,1.466-2.886,2.971-2.506a10.834,10.834,0,0,0,5.354,0c1.519-.361,2.513.908,2.939,2.56.417,1.622-.74,2.012-1.652,2.535A7.341,7.341,0,0,1,484.886,294.049Z" transform="translate(0 -2)" fill="none"/>
    <path id="Path_17003" class="cls-4" data-name="Path 17003" d="M485.766,275.6a4.677,4.677,0,0,1,.029,9.353,4.678,4.678,0,0,1-.029-9.353Zm2.9,4.652a2.716,2.716,0,0,0-2.782-2.864,2.891,2.891,0,0,0-.179,5.778A2.731,2.731,0,0,0,488.661,280.248Z" transform="translate(-1 -0.697)" />
  </g>
</svg>
