<svg xmlns="http://www.w3.org/2000/svg" xmlns:xlink="http://www.w3.org/1999/xlink" viewBox="0 0 200 200"><defs><style>.cls-1{fill:none;}.cls-2{clip-path:url(#clip-path);}.cls-3{fill:#e2f1fc;}.cls-4{fill:#1976d1;}.cls-5{fill:#fff;}.cls-6{fill:#2fd9af;}</style><clipPath id="clip-path"><rect class="cls-1" width="200" height="200"/></clipPath></defs><title>success-basket-icon</title><g id="Layer_2" data-name="Layer 2"><g id="success-basket"><g class="cls-2"><path class="cls-3" d="M100,200A100,100,0,1,0,0,100,100,100,0,0,0,100,200"/><path class="cls-4" d="M83.43,76.68a1.09,1.09,0,0,1-1.06-1.13c0-15.16,3.64-28.17,9.81-34.82a15.54,15.54,0,0,1,11.71-5.32c6,0,10.63,2.24,13.67,6.65,4.81,7,5.26,19.15,1.22,33.39a1.05,1.05,0,0,1-1.32.76,1.17,1.17,0,0,1-.71-1.43c3.84-13.54,3.52-25-.89-31.37-2.62-3.79-6.65-5.72-12-5.72a13.57,13.57,0,0,0-10.21,4.65C87.9,48.57,84.46,61,84.49,75.54a1.1,1.1,0,0,1-1.06,1.14Z"/></g><polygon class="cls-5" points="51.08 149.28 117.12 149.28 124.91 59.33 58.16 59.33 51.08 149.28"/><g class="cls-2"><path class="cls-4" d="M52.23,148.14h63.93l7.58-87.68H59.13Zm64.89,2.27h-66a1,1,0,0,1-.78-.36,1.23,1.23,0,0,1-.28-.87l7.08-90a1.09,1.09,0,0,1,1-1h66.76a1,1,0,0,1,.78.37,1.17,1.17,0,0,1,.27.87l-7.78,89.95a1.09,1.09,0,0,1-1.06,1"/></g><polygon class="cls-6" points="117.11 149.28 148.96 149.28 141.18 59.33 124.9 59.33 117.11 149.28"/><g class="cls-2"><path class="cls-4" d="M118.28,148.14h29.51l-7.58-87.68H125.86ZM149,150.41H117.11a1,1,0,0,1-.78-.37,1.17,1.17,0,0,1-.27-.87l7.78-89.95a1.09,1.09,0,0,1,1.06-1h16.27a1.09,1.09,0,0,1,1.06,1L150,149.17a1.17,1.17,0,0,1-.27.87,1,1,0,0,1-.78.37"/><path class="cls-4" d="M133.76,115.24a1.11,1.11,0,0,1-1.06-1.14V59.44a1.06,1.06,0,1,1,2.12,0V114.1a1.1,1.1,0,0,1-1.06,1.14"/><path class="cls-4" d="M133.76,136.49a1.11,1.11,0,0,1-1.06-1.14v-9.11a1.06,1.06,0,1,1,2.12,0v9.11a1.1,1.1,0,0,1-1.06,1.14"/><path class="cls-4" d="M117.31,150.41a1,1,0,0,1-.83-.43,1.2,1.2,0,0,1,.18-1.6l16.45-13.92a1,1,0,0,1,1.48.19,1.19,1.19,0,0,1-.17,1.6L118,150.17a1,1,0,0,1-.66.24"/><path class="cls-4" d="M148.76,150.41a1,1,0,0,1-.69-.27l-15-13.93a1.2,1.2,0,0,1-.11-1.6,1,1,0,0,1,1.49-.12l15,13.92a1.21,1.21,0,0,1,.11,1.61,1,1,0,0,1-.8.39"/><path class="cls-4" d="M72.83,77.06a1.08,1.08,0,0,1-1-1c-1.46-12.49,1.14-24.15,6.93-31.2a17.56,17.56,0,0,1,13.87-6.8c5.6,0,9.68,1.65,12.46,5,5.12,6.25,5,17.08,3.18,32.52a1.08,1.08,0,0,1-1.19,1,1.13,1.13,0,0,1-.92-1.27c1.72-14.4,1.92-25.14-2.66-30.73-2.36-2.87-5.91-4.27-10.87-4.27a15.37,15.37,0,0,0-12.28,6c-5.32,6.47-7.78,17.74-6.42,29.4A1.12,1.12,0,0,1,73,77.05h-.13"/><path class="cls-5" d="M70.52,75.39a2.83,2.83,0,1,0,2.83-3,2.93,2.93,0,0,0-2.83,3"/><path class="cls-4" d="M73.34,73.49a1.9,1.9,0,1,0,1.77,1.89,1.83,1.83,0,0,0-1.77-1.89m0,6.07a4.19,4.19,0,1,1,3.89-4.18,4,4,0,0,1-3.89,4.18"/><path class="cls-5" d="M103.73,75.39a2.83,2.83,0,1,0,2.83-3,2.94,2.94,0,0,0-2.83,3"/><path class="cls-4" d="M106.56,73.49a1.9,1.9,0,1,0,1.76,1.89,1.83,1.83,0,0,0-1.76-1.89m0,6.07a4.19,4.19,0,1,1,3.88-4.18,4,4,0,0,1-3.88,4.18"/><path class="cls-4" d="M133.76,121.69a1.11,1.11,0,0,1-1.06-1.14V119a1.06,1.06,0,1,1,2.12,0v1.52a1.1,1.1,0,0,1-1.06,1.14"/><path class="cls-4" d="M161.43,150.41H33.64a1.14,1.14,0,1,1,0-2.27H161.43a1.14,1.14,0,1,1,0,2.27"/><path class="cls-4" d="M166.36,150.41h-.76a1.14,1.14,0,0,1,0-2.27h.76a1.14,1.14,0,1,1,0,2.27"/><path class="cls-4" d="M58.16,46.89a.92.92,0,0,0-.91-.92H54.69V43.41a.92.92,0,0,0-1.83,0V46H49.93a.92.92,0,0,0,0,1.83h2.93v2.93a.92.92,0,0,0,1.83,0V47.8h2.56a.91.91,0,0,0,.91-.91"/><path class="cls-4" d="M39.81,94.56a4.91,4.91,0,0,0-3.45-3.45,4.92,4.92,0,0,0,3.45-3.45,4.91,4.91,0,0,0,3.44,3.45,4.89,4.89,0,0,0-3.44,3.45m6.7-4.18c-4.62-.85-5.13-1.35-6-6a.74.74,0,0,0-.72-.61.75.75,0,0,0-.73.61c-.85,4.62-1.35,5.12-6,6a.74.74,0,0,0-.6.73.73.73,0,0,0,.6.72c4.63.86,5.13,1.36,6,6a.75.75,0,0,0,.73.61.74.74,0,0,0,.72-.61c.85-4.62,1.36-5.12,6-6a.73.73,0,0,0,.6-.72.74.74,0,0,0-.6-.73"/><path class="cls-4" d="M149.57,53.25a4.88,4.88,0,0,0-3.44-3.44,4.89,4.89,0,0,0,3.44-3.45A4.92,4.92,0,0,0,153,49.81a4.91,4.91,0,0,0-3.45,3.44m6.71-4.17c-4.63-.85-5.13-1.35-6-6a.74.74,0,0,0-1.45,0c-.85,4.63-1.35,5.13-6,6a.74.74,0,0,0-.6.73.73.73,0,0,0,.6.72c4.63.85,5.13,1.36,6,6a.74.74,0,0,0,1.45,0c.85-4.62,1.35-5.13,6-6a.73.73,0,0,0,.6-.72.74.74,0,0,0-.6-.73"/><path class="cls-4" d="M167.5,129.49a.91.91,0,0,0-.91-.91H164V126a.92.92,0,1,0-1.83,0v2.56h-2.93a.92.92,0,0,0,0,1.83h2.93v2.92a.92.92,0,1,0,1.83,0v-2.92h2.56a.92.92,0,0,0,.91-.92"/></g></g></g></svg>