<svg xmlns="http://www.w3.org/2000/svg" xmlns:xlink="http://www.w3.org/1999/xlink" viewBox="0 0 200 200"><defs><style>.cls-1,.cls-6,.cls-8{fill:none;}.cls-2{clip-path:url(#clip-path);}.cls-3{fill:#e2f1fc;}.cls-4{fill:#1976d1;}.cls-5{fill:#fff;}.cls-6,.cls-8{stroke:#1976d1;}.cls-6{stroke-linecap:round;stroke-linejoin:round;stroke-width:2.5px;}.cls-7{fill:#2fd9af;}.cls-8{stroke-miterlimit:10;stroke-width:1.5px;}</style><clipPath id="clip-path"><rect class="cls-1" width="200" height="200"/></clipPath></defs><title>success-mail-icon</title><g id="Layer_2" data-name="Layer 2"><g id="success-mail"><g class="cls-2"><path class="cls-3" d="M100,200A100,100,0,1,0,0,100,100,100,0,0,0,100,200"/><path class="cls-4" d="M158.76,56.79a7.86,7.86,0,0,0-5.55-5.55,7.85,7.85,0,0,0,5.55-5.54,7.83,7.83,0,0,0,5.54,5.54,7.85,7.85,0,0,0-5.54,5.55m8.2-6.25c-5.1-1.41-6.09-2.4-7.5-7.5a.72.72,0,0,0-.7-.54.74.74,0,0,0-.71.54c-1.41,5.1-2.39,6.09-7.5,7.5a.72.72,0,0,0-.53.7.74.74,0,0,0,.53.71c5.11,1.41,6.09,2.39,7.5,7.49a.74.74,0,0,0,.71.54.72.72,0,0,0,.7-.54c1.41-5.1,2.4-6.08,7.5-7.49a.74.74,0,0,0,.54-.71.72.72,0,0,0-.54-.7"/><path class="cls-3" d="M43.54,78.87V153A3.46,3.46,0,0,0,47,156.47H153a3.46,3.46,0,0,0,3.47-3.47V78.87L100,46.36Z"/><path class="cls-4" d="M155.44,153a2.44,2.44,0,0,1-2.44,2.44H47a2.47,2.47,0,0,1-1.69-.67,2.44,2.44,0,0,1-.76-1.77V79.46L100,47.55l55.43,31.91ZM157,78,100.52,45.47a1,1,0,0,0-1,0L43,78a1,1,0,0,0-.52.89V153A4.52,4.52,0,0,0,47,157.5H153a4.5,4.5,0,0,0,4.5-4.5V78.87A1,1,0,0,0,157,78"/><path class="cls-5" d="M66.2,43.53a6.87,6.87,0,0,0-6.87,6.87v68h81.35V62.67l-18.8-19.14Z"/><path class="cls-4" d="M139.65,117.34H60.36V50.4a5.85,5.85,0,0,1,5.84-5.84h55.25l18.2,18.54Zm-17-74.53a1,1,0,0,0-.74-.31H66.2a7.9,7.9,0,0,0-7.9,7.9v68a1,1,0,0,0,1,1h81.35a1,1,0,0,0,1-1V62.67a1,1,0,0,0-.29-.72Z"/><path class="cls-4" d="M156.29,77.84h0l0,0h0"/><path class="cls-3" d="M43.53,153A3.48,3.48,0,0,0,47,156.43H153a3.48,3.48,0,0,0,3.48-3.48V118.32H43.53Z"/><path class="cls-4" d="M155.43,153a2.44,2.44,0,0,1-.76,1.78,2.47,2.47,0,0,1-1.69.67H47A2.44,2.44,0,0,1,44.56,153v-33.6H155.43Zm1-35.66H43.53a1,1,0,0,0-1,1V153a4.54,4.54,0,0,0,1.4,3.27,4.47,4.47,0,0,0,3.1,1.24H153a4.46,4.46,0,0,0,3.1-1.24,4.51,4.51,0,0,0,1.41-3.27V118.32a1,1,0,0,0-1-1"/><path class="cls-3" d="M43.54,153a3.5,3.5,0,0,0,1.08,2.52L87,118.25,43.54,78.87Z"/><path class="cls-4" d="M44.79,154a2.43,2.43,0,0,1-.22-1V81.19l40.86,37Zm-.55-75.9a1,1,0,0,0-1.11-.17,1,1,0,0,0-.62.94V153a4.51,4.51,0,0,0,1.41,3.26,1,1,0,0,0,.71.29,1.05,1.05,0,0,0,.68-.26L87.66,119a1,1,0,0,0,0-1.54Z"/><path class="cls-3" d="M155.38,155.52a3.5,3.5,0,0,0,1.08-2.52V78.87L113,118.25Z"/><path class="cls-4" d="M155.43,153a2.43,2.43,0,0,1-.22,1l-40.64-35.77,40.86-37Zm1.44-75.07a1,1,0,0,0-1.11.18l-43.43,39.37a1,1,0,0,0-.34.77,1,1,0,0,0,.35.77l42.35,37.27a1.05,1.05,0,0,0,.68.26,1,1,0,0,0,.71-.29,4.51,4.51,0,0,0,1.41-3.26V78.87a1,1,0,0,0-.62-.94"/><path class="cls-4" d="M153.59,155.32a2.43,2.43,0,0,1-.61.08H47a2.47,2.47,0,0,1-.6-.08l0,0a2.37,2.37,0,0,0,.65.09H153a2.74,2.74,0,0,0,.64-.08Z"/><path class="cls-3" d="M121.8,57.26A5.15,5.15,0,0,0,127,62.41h13.73L121.8,43.53Z"/><path class="cls-4" d="M127,61.38a4.13,4.13,0,0,1-4.12-4.12V46l15.36,15.36ZM122.53,42.8a1,1,0,0,0-1.12-.22,1,1,0,0,0-.64,1V57.26A6.18,6.18,0,0,0,127,63.44h13.73a1,1,0,0,0,.95-.64,1,1,0,0,0-.22-1.12Z"/><path class="cls-5" d="M100,99.81a19,19,0,1,0-19-19,19,19,0,0,0,19,19"/><circle class="cls-6" cx="100.01" cy="80.81" r="19"/></g><polygon class="cls-7" points="99.95 83.06 90.89 75.38 87.63 79.21 100.52 90.15 120.33 67.54 116.5 64.29 99.95 83.06"/><g class="cls-2"><path class="cls-4" d="M100.52,90.15,87.62,79.21l3.27-3.83L100,83.06,116.5,64.29l3.84,3.25Zm16.67-26.68a1.08,1.08,0,0,0-1.5.11l-15.85,18-8.26-7a1,1,0,0,0-.69-.26H90.8a1,1,0,0,0-.72.37l-3.27,3.83a1.06,1.06,0,0,0,.12,1.5L99.83,91a1.06,1.06,0,0,0,1.5-.11l19.81-22.6a1.08,1.08,0,0,0,.26-.79,1.06,1.06,0,0,0-.37-.73Z"/><path class="cls-8" d="M100.52,90.15,87.62,79.21l3.27-3.83L100,83.06,116.5,64.29l3.84,3.25Zm16.67-26.68a1.08,1.08,0,0,0-1.5.11l-15.85,18-8.26-7a1,1,0,0,0-.69-.26H90.8a1,1,0,0,0-.72.37l-3.27,3.83a1.06,1.06,0,0,0,.12,1.5L99.83,91a1.06,1.06,0,0,0,1.5-.11l19.81-22.6a1.08,1.08,0,0,0,.26-.79,1.06,1.06,0,0,0-.37-.73Z"/><path class="cls-4" d="M161.43,157.5H33.64a1.14,1.14,0,0,1,0-2.28H161.43a1.14,1.14,0,0,1,0,2.28"/><path class="cls-4" d="M166.36,157.5h-.76a1.14,1.14,0,0,1,0-2.28h.76a1.14,1.14,0,0,1,0,2.28"/><path class="cls-4" d="M42.64,63.88a4.9,4.9,0,0,0-3.44-3.44A4.91,4.91,0,0,0,42.64,57a4.92,4.92,0,0,0,3.45,3.45,4.91,4.91,0,0,0-3.45,3.44m6.71-4.17c-4.63-.85-5.13-1.35-6-6a.74.74,0,0,0-.73-.6.73.73,0,0,0-.72.6c-.85,4.63-1.36,5.13-6,6a.74.74,0,0,0-.6.73.73.73,0,0,0,.6.72c4.62.85,5.13,1.36,6,6a.73.73,0,0,0,.72.6.74.74,0,0,0,.73-.6c.85-4.62,1.35-5.13,6-6a.73.73,0,0,0,.6-.72.74.74,0,0,0-.6-.73"/></g></g></g></svg>