<svg xmlns="http://www.w3.org/2000/svg" xmlns:xlink="http://www.w3.org/1999/xlink" viewBox="0 0 200 200"><defs><style>.cls-1{fill:none;}.cls-2{clip-path:url(#clip-path);}.cls-3{fill:#e2f1fc;}.cls-4{fill:#1976d1;}.cls-5{fill:#fff;}.cls-6{fill:#2fd9af;}</style><clipPath id="clip-path"><rect class="cls-1" width="200" height="200"/></clipPath></defs><title>success-icon</title><g id="Layer_2" data-name="Layer 2"><g id="success"><g class="cls-2"><path class="cls-3" d="M100,200A100,100,0,1,0,0,100,100,100,0,0,0,100,200"/><path class="cls-3" d="M53,61.83V80.54c0,34.05,18.93,65.13,47,75.89,28.07-10.76,47-41.84,47-75.89V61.83c-18.58-1.82-34.47-7.51-47-18C87.47,54.32,71.58,60,53,61.83"/><path class="cls-4" d="M146,80.54c0,33.52-18.9,64.22-46,74.82-27.11-10.6-46-41.3-46-74.82V62.73c18.63-2,34.1-7.89,46-17.63,11.9,9.74,27.37,15.66,46,17.63ZM100.64,43,100,42.5l-.64.54C87.5,53,71.87,59,52.9,60.84l-.9.09V80.54a89.84,89.84,0,0,0,13.12,47.2c8.66,14,20.59,24.28,34.52,29.62l.36.14.36-.14c13.93-5.34,25.86-15.58,34.52-29.62A89.84,89.84,0,0,0,148,80.54V60.93l-.9-.09C128.13,59,112.5,53,100.64,43"/><path class="cls-5" d="M64.65,71.93v8.61c0,27.58,14.33,52.84,35.35,63.22,21-10.38,35.35-35.64,35.35-63.22V71.93c-13.44-2.47-25.28-7-35.35-13.66C89.93,64.89,78.09,69.46,64.65,71.93"/><path class="cls-4" d="M135.16,86.1a1,1,0,0,0-1.08.91c-2,24.39-15.36,46.16-34.08,55.63-20.57-10.4-34.35-35.28-34.35-62.1V72.76A96.31,96.31,0,0,0,100,59.46a91.08,91.08,0,0,0,22.35,10.32,1,1,0,1,0,.59-1.91,88.13,88.13,0,0,1-22.39-10.43l-.55-.36-.55.36C89.51,64,77.74,68.51,64.47,71l-.82.15v9.44c0,27.75,14.43,53.51,35.91,64.11l.44.22.44-.22C120,135,134,112.43,136.07,87.18a1,1,0,0,0-.91-1.08"/></g><polygon class="cls-4" points="134.35 80.73 134.35 80.73 136.35 80.73 134.35 80.73"/><polygon class="cls-4" points="135.35 80.73 134.35 80.73 134.35 80.73 135.35 80.73 136.35 80.73 135.35 80.73"/><g class="cls-2"><path class="cls-4" d="M133.06,66a2,2,0,0,0-1.29-.48,2,2,0,0,0-1.5.68L100.67,99.8,85.25,86.72A2,2,0,0,0,84,86.24H83.8a2,2,0,0,0-1.36.69l-6.1,7.16a2,2,0,0,0,.23,2.8l24.08,20.43a2,2,0,0,0,1.3.48,2,2,0,0,0,1.5-.68l37-42.21a2,2,0,0,0-.21-2.83Z"/></g><polygon class="cls-6" points="100.87 102.58 83.96 88.23 77.86 95.39 101.95 115.82 138.94 73.61 131.77 67.52 100.87 102.58"/><g class="cls-2"><path class="cls-4" d="M102,115.82,77.86,95.39,84,88.24l16.91,14.34,30.9-35.06,7.17,6.09ZM133.06,66a2,2,0,0,0-1.29-.48,2,2,0,0,0-1.5.68L100.67,99.8,85.25,86.72A2,2,0,0,0,84,86.24H83.8a2,2,0,0,0-1.36.69l-6.1,7.16a2,2,0,0,0,.23,2.8l24.08,20.43a2,2,0,0,0,1.3.48,2,2,0,0,0,1.5-.68l37-42.21a2,2,0,0,0-.21-2.83Z"/><path class="cls-4" d="M123.59,155.22H64.23a1.14,1.14,0,0,0,0,2.28h59.36a1.14,1.14,0,0,0,0-2.28"/><path class="cls-4" d="M135.77,155.22h-5.71a1.14,1.14,0,0,0,0,2.28h5.71a1.14,1.14,0,0,0,0-2.28"/><path class="cls-4" d="M154,138.34h-2.56v-2.93a.92.92,0,0,0-1.83,0v2.93h-2.92a.92.92,0,1,0,0,1.83h2.92v2.92a.92.92,0,1,0,1.83,0v-2.92H154a.92.92,0,1,0,0-1.83"/><path class="cls-4" d="M57.73,46.89a.92.92,0,0,0-.91-.92H54.26V43.41a.92.92,0,0,0-1.83,0V46H49.5a.92.92,0,0,0,0,1.83h2.93v2.93a.92.92,0,0,0,1.83,0V47.8h2.56a.91.91,0,0,0,.91-.91"/><path class="cls-4" d="M39.81,134.61a4.91,4.91,0,0,0-3.45-3.44,4.92,4.92,0,0,0,3.45-3.45,4.91,4.91,0,0,0,3.44,3.45,4.9,4.9,0,0,0-3.44,3.44m6.7-4.17c-4.62-.85-5.13-1.35-6-6a.73.73,0,0,0-.72-.6.74.74,0,0,0-.73.6c-.85,4.63-1.35,5.13-6,6a.74.74,0,0,0-.6.73.73.73,0,0,0,.6.72c4.63.85,5.13,1.36,6,6a.75.75,0,0,0,.73.61.74.74,0,0,0,.72-.61c.85-4.62,1.36-5.13,6-6a.73.73,0,0,0,.6-.72.74.74,0,0,0-.6-.73"/><path class="cls-4" d="M158.76,56.79a7.86,7.86,0,0,0-5.55-5.55,7.85,7.85,0,0,0,5.55-5.54,7.83,7.83,0,0,0,5.54,5.54,7.85,7.85,0,0,0-5.54,5.55m8.2-6.25c-5.1-1.41-6.09-2.4-7.5-7.5a.72.72,0,0,0-.7-.54.74.74,0,0,0-.71.54c-1.41,5.1-2.39,6.09-7.5,7.5a.72.72,0,0,0-.53.7.74.74,0,0,0,.53.71c5.11,1.41,6.09,2.39,7.5,7.49a.74.74,0,0,0,.71.54.72.72,0,0,0,.7-.54c1.41-5.1,2.4-6.08,7.5-7.49a.74.74,0,0,0,.54-.71.72.72,0,0,0-.54-.7"/></g></g></g></svg>