<svg xmlns="http://www.w3.org/2000/svg" xmlns:xlink="http://www.w3.org/1999/xlink" viewBox="0 0 200 200"><defs><style>.cls-1{fill:none;}.cls-2{clip-path:url(#clip-path);}.cls-3{fill:#e2f1fc;}.cls-4{fill:#1976d1;}.cls-5{fill:#fff;}.cls-6{fill:#2fd9af;}</style><clipPath id="clip-path"><rect class="cls-1" width="200" height="200"/></clipPath></defs><title>success-subscribe-icon</title><g id="Layer_2" data-name="Layer 2"><g id="success-subscribe"><g class="cls-2"><path class="cls-3" d="M100,200A100,100,0,1,0,0,100,100,100,0,0,0,100,200"/><path class="cls-4" d="M76.41,155.22h59.36a1.14,1.14,0,0,1,0,2.28H76.41a1.14,1.14,0,0,1,0-2.28"/><path class="cls-4" d="M64.23,155.22h5.71a1.14,1.14,0,0,1,0,2.28H64.23a1.14,1.14,0,0,1,0-2.28"/></g><rect class="cls-3" x="102.44" y="88.03" width="15.18" height="68.33"/><g class="cls-2"><path class="cls-4" d="M103.58,155.22h12.91v-66H103.58Zm14,2.28H102.44a1.14,1.14,0,0,1-1.14-1.14V88a1.14,1.14,0,0,1,1.14-1.14h15.19A1.14,1.14,0,0,1,118.77,88v68.33a1.14,1.14,0,0,1-1.14,1.14"/><path class="cls-3" d="M149.81,57.27V87.61a2.08,2.08,0,0,1-2.08,2.08H64V57.32A12.45,12.45,0,0,1,76.49,44.9h60.83a12.74,12.74,0,0,1,3.11.38,12.36,12.36,0,0,1,9.38,12"/><path class="cls-4" d="M65.16,88.55h82.57a.94.94,0,0,0,.94-.94V57.27a11.3,11.3,0,0,0-.41-3,12.15,12.15,0,0,0-.69-1.82,11.3,11.3,0,0,0-7.42-6.06,11.61,11.61,0,0,0-2.83-.35H76.49A11.32,11.32,0,0,0,65.16,57.32Zm82.57,2.28H62.88V57.32A13.6,13.6,0,0,1,76.49,43.76h60.83a13.75,13.75,0,0,1,3.39.42,13.56,13.56,0,0,1,8.91,7.28,13.3,13.3,0,0,1,1.32,5.81V87.61a3.22,3.22,0,0,1-3.21,3.22"/><path class="cls-5" d="M98.34,63.34h0a2,2,0,0,0,2-2V22.61h-4V61.33a2,2,0,0,0,2,2"/><path class="cls-4" d="M97.47,23.75V61.33a.87.87,0,1,0,1.73,0V23.75Zm.87,40.72a3.15,3.15,0,0,1-3.15-3.14V22.61a1.14,1.14,0,0,1,1.14-1.13h4a1.14,1.14,0,0,1,1.14,1.13V61.33a3.15,3.15,0,0,1-3.14,3.14"/><path class="cls-4" d="M76.07,44.9H70.78A12.46,12.46,0,0,0,58.32,57.35V89.69H88.69V57.52A12.66,12.66,0,0,0,76.07,44.9"/><path class="cls-4" d="M59.46,88.55H87.55v-31A11.49,11.49,0,0,0,76.07,46H70.78A11.33,11.33,0,0,0,59.46,57.35Zm29.23,2.28H58.32a1.14,1.14,0,0,1-1.14-1.14V57.35a13.61,13.61,0,0,1,13.6-13.59h5.29A13.77,13.77,0,0,1,89.83,57.52V89.69a1.14,1.14,0,0,1-1.14,1.14"/><path class="cls-3" d="M59.08,89.69l-8.64,13.45c-1.33,4.22,3,8.39,9.49,9.28l4.93.68c6.48.89,11.93-1.71,14.13-6l9.7-17.38Z"/><path class="cls-4" d="M51.48,103.62a4.09,4.09,0,0,0,.59,3.4c1.35,2.14,4.43,3.78,8,4.27L65,112c5.8.79,10.89-1.33,13-5.42,0,0,0,0,0,0l8.75-15.68h-27Zm15.91,10.79a19.13,19.13,0,0,1-2.69-.19l-4.92-.67c-4.3-.59-7.9-2.58-9.64-5.32a6.33,6.33,0,0,1-.79-5.43,1,1,0,0,1,.13-.28l8.64-13.44a1.14,1.14,0,0,1,1-.53H88.69a1.15,1.15,0,0,1,1,.56,1.13,1.13,0,0,1,0,1.14L80,107.6c-2.2,4.29-7,6.81-12.61,6.81"/><path class="cls-6" d="M97,33.23h15.23a.42.42,0,0,0,.42-.42V23a.41.41,0,0,0-.42-.41H97a.41.41,0,0,0-.41.41v9.78a.41.41,0,0,0,.41.42"/><path class="cls-4" d="M97.73,32.09h13.78V23.75H97.73Zm14.5,2.27H97a1.54,1.54,0,0,1-1.55-1.55V23A1.54,1.54,0,0,1,97,21.48h15.23A1.54,1.54,0,0,1,113.78,23v9.78a1.54,1.54,0,0,1-1.55,1.55"/></g><rect class="cls-5" x="51.87" y="59.7" width="36.82" height="29.99"/><g class="cls-2"><path class="cls-4" d="M53,88.55H87.55V60.84H53Zm35.68,2.28H51.87a1.14,1.14,0,0,1-1.14-1.14v-30a1.14,1.14,0,0,1,1.14-1.14H88.69a1.14,1.14,0,0,1,1.14,1.14v30a1.14,1.14,0,0,1-1.14,1.14"/></g><polygon class="cls-5" points="88.31 59.7 51.93 59.7 72.08 75.65 88.31 62.4 88.31 59.7"/><g class="cls-2"><path class="cls-4" d="M54.12,60.46,72.07,74.67,87.55,62V60.46Zm18,15.95a.78.78,0,0,1-.48-.17L51.46,60.3a.77.77,0,0,1,.47-1.36H88.31a.76.76,0,0,1,.76.76v2.7a.76.76,0,0,1-.28.59L72.56,76.23a.74.74,0,0,1-.48.18"/><path class="cls-4" d="M66.52,79.31a.74.74,0,0,0-1-.18L51.91,88.76v1.86L66.35,80.36a.74.74,0,0,0,.17-1"/><path class="cls-4" d="M88.65,86.09,76.79,77.61a.76.76,0,1,0-.88,1.23L88.65,88Z"/><path class="cls-6" d="M87.64,136.71l6.83,19.65h5.7a26.25,26.25,0,0,0-12.53-19.65"/><path class="cls-4" d="M95.28,155.22h3.57a25.44,25.44,0,0,0-9-15.58Zm4.89,2.28h-5.7a1.13,1.13,0,0,1-1.07-.76l-6.84-19.65a1.14,1.14,0,0,1,1.61-1.38,27.16,27.16,0,0,1,13.13,20.52,1.19,1.19,0,0,1-.28.89,1.16,1.16,0,0,1-.85.38"/><path class="cls-6" d="M107,126.89c3.35,9.56,2.48,19.42-1.14,29.47h-5.69c-.35-20.29,6.45-27.18,6.83-29.47"/><path class="cls-4" d="M101.29,155.22h3.76c3.19-9.18,3.76-17.46,1.73-25.17-2,3.65-5.55,10.87-5.49,25.17m4.57,2.28h-5.69A1.14,1.14,0,0,1,99,156.38c-.28-16.21,3.93-24,6-27.81a10.37,10.37,0,0,0,.88-1.86,1.14,1.14,0,0,1,2.2-.2c3.24,9.23,2.87,19.12-1.14,30.24a1.13,1.13,0,0,1-1.07.75"/><path class="cls-6" d="M129,136.71l-6.83,19.65h-5.69A26.22,26.22,0,0,1,129,136.71"/><path class="cls-4" d="M117.8,155.22h3.57l5.41-15.56a25.47,25.47,0,0,0-9,15.56m4.38,2.28h-5.69a1.14,1.14,0,0,1-1.13-1.27,27.11,27.11,0,0,1,13.13-20.52,1.14,1.14,0,0,1,1.27.14,1.16,1.16,0,0,1,.33,1.24l-6.83,19.65a1.15,1.15,0,0,1-1.08.76"/><path class="cls-6" d="M116.11,127.87c2.32,10.79,2.79,20.79-2.28,28.49h-5.69c1.64-14,8-28.49,8-28.49"/><path class="cls-4" d="M109.43,155.22h3.78c3.49-5.66,4.3-13,2.52-23.33a114.15,114.15,0,0,0-6.3,23.33m4.4,2.28h-5.69a1.14,1.14,0,0,1-1.13-1.27c1.64-14,8-28.66,8-28.81a1.14,1.14,0,0,1,2.16.21c1.94,9,3.41,20.47-2.44,29.36a1.14,1.14,0,0,1-1,.51"/><path class="cls-4" d="M137.46,112.16H134.9v2.93a.92.92,0,0,1-1.83,0v-2.93h-2.93a.92.92,0,0,1,0-1.83h2.93v-2.92a.92.92,0,1,1,1.83,0v2.92h2.56a.92.92,0,0,1,0,1.83"/><path class="cls-4" d="M57.73,136.75a.92.92,0,0,1-.91.92H54.26v2.56a.92.92,0,0,1-1.83,0v-2.56H49.5a.92.92,0,0,1,0-1.83h2.93v-2.93a.92.92,0,0,1,1.83,0v2.93h2.56a.91.91,0,0,1,.91.91"/><path class="cls-4" d="M39.81,56.15a4.92,4.92,0,0,1-3.45,3.45A4.91,4.91,0,0,1,39.81,63a4.9,4.9,0,0,1,3.44-3.44,4.91,4.91,0,0,1-3.44-3.45m6.7,4.17c-4.62.85-5.13,1.36-6,6a.74.74,0,0,1-.72.61.75.75,0,0,1-.73-.61c-.85-4.62-1.35-5.13-6-6a.73.73,0,0,1-.6-.72.74.74,0,0,1,.6-.73c4.63-.85,5.13-1.35,6-6a.75.75,0,0,1,.73-.61.74.74,0,0,1,.72.61c.85,4.62,1.36,5.12,6,6a.74.74,0,0,1,.6.73.73.73,0,0,1-.6.72"/><path class="cls-4" d="M158.76,127.2a7.85,7.85,0,0,1-5.55,5.54,7.86,7.86,0,0,1,5.55,5.55,7.85,7.85,0,0,1,5.54-5.55,7.83,7.83,0,0,1-5.54-5.54m8.2,6.25c-5.1,1.41-6.09,2.39-7.5,7.49a.72.72,0,0,1-.7.54.74.74,0,0,1-.71-.54c-1.41-5.1-2.39-6.08-7.5-7.49a.74.74,0,0,1-.53-.71.72.72,0,0,1,.53-.7c5.11-1.41,6.09-2.4,7.5-7.5a.74.74,0,0,1,.71-.54.72.72,0,0,1,.7.54c1.41,5.1,2.4,6.09,7.5,7.5a.72.72,0,0,1,.54.7.74.74,0,0,1-.54.71"/></g></g></g></svg>