<svg xmlns="http://www.w3.org/2000/svg" width="45" height="48" viewBox="0 0 45 48"><defs><style>.a{fill:#1970c0;}</style></defs><path class="a" d="M34,3.29a1,1,0,0,0-1,1v6.57a1,1,0,0,0,1,1h6.67a1,1,0,1,0,0-2H35V4.29A1,1,0,0,0,34,3.29Z" transform="translate(0 0)"/><path class="a" d="M44.7,9.05,35.8.29A1,1,0,0,0,35.1,0H10.63A3.21,3.21,0,0,0,7.4,3.19v7.67a1,1,0,1,0,2,0V3.19A1.21,1.21,0,0,1,10.63,2H34.69L43,10.18V44.81A1.21,1.21,0,0,1,41.77,46H10.63A1.21,1.21,0,0,1,9.4,44.81V41.52a1,1,0,0,0-2,0v3.29A3.21,3.21,0,0,0,10.63,48H41.77A3.21,3.21,0,0,0,45,44.81V9.76a1,1,0,0,0-.3-.71Z" transform="translate(0 0)"/><path class="a" d="M24,38.27v-3a1,1,0,0,0-2,0v2H2v-2a1,1,0,0,0-2,0v3a1,1,0,0,0,1,1H23A1,1,0,0,0,24,38.27Z" transform="translate(0 0)"/><path class="a" d="M2.12,24.38H6.61v8.86a1,1,0,0,0,1,1h8.78a1,1,0,0,0,1-1V24.38h4.49a1.006,1.006,0,0,0,.71-1.71l-9.88-9.85a1,1,0,0,0-1.42,0L1.41,22.67a1.006,1.006,0,0,0,.71,1.71ZM12,14.94l7.46,7.44H16.39a1,1,0,0,0-1,1v8.86H8.61V23.38a1,1,0,0,0-1-1H4.54Z" transform="translate(0 0)"/></svg>